<svg viewBox="0 0 800 450" xmlns="http://www.w3.org/2000/svg">
  <defs>
    <linearGradient id="bg3" x1="0" y1="0" x2="1" y2="1">
      <stop offset="0%" stop-color="#eef0fd"/>
      <stop offset="100%" stop-color="#e0e7ff"/>
    </linearGradient>
  </defs>
  <rect width="800" height="450" fill="url(#bg3)"/>

  <!-- checklist motif -->
  <g transform="translate(240,90)">
    <rect x="0" y="0" width="320" height="270" rx="18" fill="#ffffff" opacity="0.7"/>
    <g font-family="Arial, sans-serif" fill="none" stroke="#4338ca" stroke-width="3" stroke-linecap="round" stroke-linejoin="round">
      <circle cx="30" cy="40" r="14" opacity="0.6"/>
      <path d="M24 40 l5 6 l10 -12" opacity="0.9"/>
      <circle cx="30" cy="95" r="14" opacity="0.6"/>
      <path d="M24 95 l5 6 l10 -12" opacity="0.9"/>
      <circle cx="30" cy="150" r="14" opacity="0.6"/>
      <path d="M24 150 l5 6 l10 -12" opacity="0.9"/>
      <circle cx="30" cy="205" r="14" opacity="0.6"/>
      <path d="M24 205 l5 6 l10 -12" opacity="0.9"/>
    </g>
    <g fill="#c7d2fe">
      <rect x="65" y="32" width="220" height="16" rx="8"/>
      <rect x="65" y="87" width="180" height="16" rx="8"/>
      <rect x="65" y="142" width="200" height="16" rx="8"/>
      <rect x="65" y="197" width="150" height="16" rx="8"/>
    </g>
  </g>
</svg>
