<svg viewBox="0 0 800 450" xmlns="http://www.w3.org/2000/svg">
  <defs>
    <linearGradient id="bg5" x1="0" y1="0" x2="1" y2="1">
      <stop offset="0%" stop-color="#fffbeb"/>
      <stop offset="100%" stop-color="#fef3c7"/>
    </linearGradient>
  </defs>
  <rect width="800" height="450" fill="url(#bg5)"/>

  <!-- abstract river + skyline -->
  <path d="M0 320 C 200 280, 300 360, 500 310 S 800 340, 800 300 L800 450 L0 450 Z" fill="#f59e0b" opacity="0.18"/>
  <g fill="#b45309" opacity="0.25">
    <rect x="140" y="200" width="45" height="140"/>
    <rect x="200" y="230" width="45" height="110"/>
    <rect x="260" y="170" width="45" height="170"/>
    <rect x="320" y="210" width="45" height="130"/>
  </g>

  <g transform="translate(590,150)">
    <path d="M40 0 C62 0 80 18 80 40 C80 70 40 110 40 110 C40 110 0 70 0 40 C0 18 18 0 40 0 Z" fill="#d97706" opacity="0.85"/>
    <circle cx="40" cy="40" r="16" fill="#fffbeb"/>
  </g>
</svg>
