<svg viewBox="0 0 800 450" xmlns="http://www.w3.org/2000/svg">
  <defs>
    <linearGradient id="bg1" x1="0" y1="0" x2="1" y2="1">
      <stop offset="0%" stop-color="#eef0fd"/>
      <stop offset="100%" stop-color="#e0e7ff"/>
    </linearGradient>
    <radialGradient id="glow1" cx="50%" cy="50%" r="60%">
      <stop offset="0%" stop-color="#4338ca" stop-opacity="0.25"/>
      <stop offset="100%" stop-color="#4338ca" stop-opacity="0"/>
    </radialGradient>
  </defs>
  <rect width="800" height="450" fill="url(#bg1)"/>
  <circle cx="600" cy="130" r="220" fill="url(#glow1)"/>

  <!-- network / generative motif -->
  <g stroke="#4338ca" stroke-width="1.5" opacity="0.35">
    <line x1="180" y1="140" x2="330" y2="90"/>
    <line x1="330" y1="90" x2="480" y2="160"/>
    <line x1="330" y1="90" x2="300" y2="230"/>
    <line x1="480" y1="160" x2="620" y2="120"/>
    <line x1="480" y1="160" x2="520" y2="290"/>
    <line x1="300" y1="230" x2="450" y2="320"/>
    <line x1="450" y1="320" x2="520" y2="290"/>
    <line x1="180" y1="140" x2="150" y2="280"/>
    <line x1="150" y1="280" x2="300" y2="230"/>
  </g>
  <g fill="#4338ca">
    <circle cx="180" cy="140" r="6" opacity="0.55"/>
    <circle cx="330" cy="90" r="8" opacity="0.7"/>
    <circle cx="480" cy="160" r="10" opacity="0.85"/>
    <circle cx="620" cy="120" r="6" opacity="0.5"/>
    <circle cx="300" cy="230" r="7" opacity="0.6"/>
    <circle cx="520" cy="290" r="9" opacity="0.75"/>
    <circle cx="450" cy="320" r="6" opacity="0.55"/>
    <circle cx="150" cy="280" r="5" opacity="0.45"/>
  </g>

  <text x="60" y="380" font-family="Arial, sans-serif" font-weight="700" font-size="30" fill="#312e81" opacity="0.55">GEO</text>
</svg>
